<svg xmlns="http://www.w3.org/2000/svg" viewBox="0 0 24 24"><title>love-heart-hands-hold-1</title><rect x="20" y="1" width="4" height="9" rx="1" ry="1"/><path d="M3.637,6.861l.016,0,2-.639A.5.5,0,0,0,6,5.733,2.25,2.25,0,0,1,8.25,3.443H13.5a.5.5,0,1,1,0,1H8.25a1.25,1.25,0,0,0,0,2.5l3.4-.007a1,1,0,0,1,.577.182c1.329.935,2.5,1.825,4.271,1.825h2a.5.5,0,0,0,.5-.5v-5.9a.5.5,0,0,0-.339-.474c-.706-.239-1.341-.46-1.917-.66C10.918-.613,10.81-.6,5.187,2.387,3.906,3.068,2.311,3.916.277,4.934a.5.5,0,0,0-.13.8A3.232,3.232,0,0,0,3.637,6.861Z"/><rect y="14" width="4" height="9" rx="1" ry="1"/><path d="M20.363,17.139l-.016,0-2,.639a.5.5,0,0,0-.348.485,2.25,2.25,0,0,1-2.249,2.29H10.5a.5.5,0,0,1,0-1h5.25a1.25,1.25,0,1,0,0-2.5l-3.4.007a1,1,0,0,1-.577-.182c-1.329-.934-2.5-1.825-4.271-1.825h-2a.5.5,0,0,0-.5.5v5.9a.5.5,0,0,0,.339.474c.706.239,1.341.46,1.917.66,5.826,2.023,5.934,2.014,11.557-.977,1.281-.681,2.876-1.529,4.91-2.547a.5.5,0,0,0,.13-.8A3.232,3.232,0,0,0,20.363,17.139Z"/><path d="M12.438,10.187a.618.618,0,0,1-.875,0,1.585,1.585,0,1,0-2.242,2.241l2.318,2.418a.5.5,0,0,0,.722,0l2.318-2.418a1.585,1.585,0,1,0-2.241-2.241Z"/></svg>