<svg id="Bold" xmlns="http://www.w3.org/2000/svg" viewBox="0 0 24 24"><title>vegetables-plate</title><path d="M1.943,12.109a.251.251,0,0,1-.025.3.216.216,0,0,0,.162.359H6.3a.5.5,0,0,0,.492-.59,5.306,5.306,0,0,0-.8-1.994.75.75,0,0,1,1.248-.832,6.809,6.809,0,0,1,1.1,2.976.5.5,0,0,0,.5.44h.6a1,1,0,0,0,.813-.418L11.85,10.1a.252.252,0,0,0,.034-.224.247.247,0,0,0-.159-.159c-.084-.028-.164-.052-.238-.071A.251.251,0,0,1,11.3,9.4,2.81,2.81,0,0,0,8.816,6.572.251.251,0,0,1,8.594,6.4,3.273,3.273,0,0,0,4.673,4.014,3.274,3.274,0,0,0,2.628,8.121a.251.251,0,0,1-.094.266,2.747,2.747,0,0,0-.918,2.992A2.961,2.961,0,0,0,1.943,12.109Z"/><path d="M19.614,14.265H1.25A1,1,0,0,0,.3,15.573a7.476,7.476,0,0,0,7.134,5.192h6a7.476,7.476,0,0,0,7.134-5.192,1,1,0,0,0-.952-1.308Z"/><path d="M22.947,6.732l-1.091.078a.248.248,0,0,1-.245-.145.251.251,0,0,1,.051-.281l.857-.857a.75.75,0,0,0-1.06-1.061l-.858.858a.25.25,0,0,1-.426-.2l.078-1.09a.75.75,0,0,0-1.5-.108l-.151,2.108a.25.25,0,0,1-.374.2,1.5,1.5,0,0,0-2.052.382l-.255.356a.251.251,0,0,0,.027.323l1.333,1.334a.5.5,0,0,1-.707.707L15.42,8.181a.249.249,0,0,0-.38.031l-.783,1.1a.249.249,0,0,0,.026.322l1,1a.5.5,0,0,1-.707.707l-.826-.827a.251.251,0,0,0-.38.031l-1.307,1.826a.25.25,0,0,0,.2.4H17.5a1,1,0,0,0,.608-.206l2.316-1.773a1.511,1.511,0,0,0,.328-2.032.25.25,0,0,1,.2-.375l2.1-.151a.75.75,0,0,0-.107-1.5Z"/></svg>