<svg id="Bold" xmlns="http://www.w3.org/2000/svg" viewBox="0 0 24 24"><title>vegetables-carrot</title><path d="M23.928,6.009a1,1,0,0,0-1.3-.556L19.676,6.635a.5.5,0,0,0-.207.773q.31.4.6.808a.5.5,0,0,0,.6.179l2.71-1.086A1,1,0,0,0,23.928,6.009Z"/><path d="M22.136,1.864a1,1,0,0,0-1.414,0L17.758,4.828a.5.5,0,0,0,.01.718c.117.11.233.223.348.337s.227.231.339.349a.5.5,0,0,0,.717.01l2.964-2.964A1,1,0,0,0,22.136,1.864Z"/><path d="M16.592,4.531a.5.5,0,0,0,.773-.207l1.183-2.952A1,1,0,0,0,16.691.628l-1.085,2.71a.5.5,0,0,0,.178.6Q16.2,4.22,16.592,4.531Z"/><path d="M19.171,9.593a15.5,15.5,0,0,0-4.764-4.764,1.537,1.537,0,0,0-2.067.355l0,0-.28.386a.5.5,0,0,0,.051.647l2.336,2.336a.75.75,0,1,1-1.06,1.06L11.328,7.559a.5.5,0,0,0-.758.06L.255,21.814a1.363,1.363,0,0,0,.16,1.771,1.364,1.364,0,0,0,1.771.16l6.087-4.423a.5.5,0,0,0,.06-.758l-.918-.918a.75.75,0,0,1,1.06-1.06l1.2,1.2a.5.5,0,0,0,.648.051L12.2,16.466a.5.5,0,0,0,.205-.365.5.5,0,0,0-.145-.393l-2.093-2.093a.75.75,0,0,1,1.06-1.06L13.6,14.928a.5.5,0,0,0,.648.051l4.565-3.318A1.537,1.537,0,0,0,19.171,9.593Z"/></svg>